<svg width="148" height="68" viewBox="0 0 148 68" fill="none" xmlns="http://www.w3.org/2000/svg">
<path d="M10.1671 49.3994L10.0019 49.1374L2.85405 37.7086L2.76407 37.5647L2.7612 37.3847L2.73835 36.2961L2.72823 35.7768L3.16143 35.721C7.14282 35.2106 9.3061 32.7803 11.7179 29.6577C13.8166 26.9407 16.1952 23.8624 20.6271 23.4407L20.7691 23.4266L20.8938 23.5084L31.5862 30.5118L31.8926 30.7122L31.8235 31.1189L31.5931 32.4846L31.5238 32.8966L31.1723 32.9349C26.4725 33.4466 24.0956 37.0046 21.7979 40.447C19.2816 44.2157 16.4309 48.4888 10.4398 49.3601L10.167 49.3988L10.1671 49.3994Z" fill="#BD632F"/>
<path d="M3.13083 36.4631C6.30547 35.9027 8.40019 35.1253 12.0001 30.1208C15.5986 25.1166 18.6984 24.1186 20.6714 24.0386L31.3795 31.0427C27.6859 31.2699 23.8795 34.5187 21.5393 38.4604C19.1988 42.4006 15.5595 46.8631 10.5528 47.5082L3.13083 36.4633V36.4631Z" fill="url(#paint0_linear_28_357)"/>
<path d="M4.63171 38.7303C5.98167 38.6258 9.31628 37.9048 12.1792 34.0287L17.425 39.7662C15.4507 42.7064 12.0434 45.0833 9.06584 45.3883L4.63127 38.7304L4.63171 38.7303Z" fill="url(#paint1_linear_28_357)"/>
<path d="M12.8356 33.2316C14.2866 31.223 16.1195 28.2733 19.3941 26.4522L25.4216 30.8763C23.5064 32.0565 21.6074 33.5266 18.1689 38.8266L12.8354 33.232L12.8356 33.2316Z" fill="url(#paint2_linear_28_357)"/>
<path d="M20.4043 25.9596C20.4043 25.9596 22.4768 25.3885 22.7391 25.4185L29.1896 29.6769C29.1896 29.6769 28.0406 29.6667 26.5337 30.3464L20.4048 25.9599L20.4043 25.9596Z" fill="url(#paint3_linear_28_357)"/>
<path d="M3.56471 37.1685L4.5619 37.0249L5.24953 38.0747L4.3375 38.3032L3.56471 37.1685Z" fill="#D8C99B"/>
<path d="M5.58719 36.7198L6.35243 37.7885C6.35243 37.7885 7.14064 37.5363 7.39333 37.3772L6.6161 36.3303C6.28575 36.4947 5.58694 36.7202 5.58694 36.7202L5.58719 36.7198Z" fill="#D8C99B"/>
<path d="M7.47287 35.8723L8.26508 36.9194C8.26508 36.9194 9.01546 36.4391 9.15319 36.3224L8.34007 35.3021C8.19771 35.4546 7.47281 35.872 7.47281 35.872L7.47287 35.8723Z" fill="#D8C99B"/>
<path d="M9.05317 34.7205L9.87947 35.7159C9.87947 35.7159 10.5796 35.1032 10.6334 35.0032L9.78213 34.0118C9.54674 34.2774 9.05348 34.7201 9.05348 34.7201L9.05317 34.7205Z" fill="#D8C99B"/>
<path d="M10.4249 33.3596L11.2717 34.3093C11.2717 34.3093 11.9068 33.559 11.9408 33.4906L11.0724 32.5555C10.95 32.7765 10.4249 33.3598 10.4249 33.3598V33.3596Z" fill="#D8C99B"/>
<path d="M11.6412 31.8268L12.5276 32.7616C12.5276 32.7616 13.1088 31.9641 13.1461 31.8957L12.2711 31.0071C12.1744 31.1686 11.6405 31.8271 11.6405 31.8271L11.6412 31.8268Z" fill="#D8C99B"/>
<path d="M12.8406 30.2628L13.7148 31.1356L14.3491 30.3015L13.4531 29.4436L12.8406 30.2628Z" fill="#D8C99B"/>
<path d="M14.0407 28.73L14.9442 29.5656L15.6366 28.7873L14.6932 27.9651L14.0407 28.73Z" fill="#D8C99B"/>
<path d="M15.3519 27.3103L16.2973 28.1024L17.0499 27.4041L16.1249 26.6294C16.1249 26.6294 15.4081 27.2274 15.3519 27.3103V27.3103Z" fill="#D8C99B"/>
<path d="M16.881 26.0727L17.81 26.8178C17.81 26.8178 18.647 26.2842 18.7391 26.2736L17.7795 25.5395C17.6739 25.5914 16.999 25.9707 16.881 26.0727Z" fill="#D8C99B"/>
<path d="M18.6299 25.1412L19.6112 25.8307C19.6112 25.8307 20.5968 25.5025 20.7358 25.4698L19.7269 24.7696C19.4803 24.8132 18.7223 25.0975 18.6299 25.1412H18.6299Z" fill="#D8C99B"/>
<path d="M20.7022 24.5508L21.7324 25.251L22.2962 25.1489L21.2248 24.4581L20.7022 24.5508Z" fill="#D8C99B"/>
<path d="M9.38908 45.8338C9.38908 45.8338 10.3998 45.6413 10.5052 45.6003L11.251 46.7041C11.251 46.7041 10.1533 46.9365 10.1037 46.9321L9.38821 45.8346L9.38908 45.8338Z" fill="#D8C99B"/>
<path d="M11.6874 45.2453L12.4536 46.3262C12.4536 46.3262 13.4317 45.9378 13.675 45.7791L12.8726 44.7174C12.6335 44.861 11.7818 45.2107 11.6875 45.2449L11.6874 45.2453Z" fill="#D8C99B"/>
<path d="M13.8559 44.1604C14.0023 44.0789 14.8088 43.5007 14.8513 43.4312L15.6931 44.458C15.6931 44.458 14.8535 45.1116 14.6694 45.2L13.8564 44.1606L13.8559 44.1604Z" fill="#D8C99B"/>
<path d="M15.679 42.7155L16.5171 43.7295C16.5171 43.7295 17.2982 42.9315 17.3757 42.8297L16.5265 41.8375C16.3336 42.0711 15.7336 42.673 15.6792 42.7155H15.679Z" fill="#D8C99B"/>
<path d="M17.2369 40.993L18.1019 41.9672L18.8491 40.9809L17.9752 40.0417C17.9758 40.0447 17.3858 40.8349 17.2372 40.9934L17.2369 40.993Z" fill="#D8C99B"/>
<path d="M18.6361 39.132L19.522 40.0608C19.522 40.0608 20.1696 39.1353 20.2243 39.0204L19.3259 38.1239C19.2048 38.336 18.7409 38.9811 18.636 39.1321L18.6361 39.132Z" fill="#D8C99B"/>
<path d="M19.9741 37.2086L20.8662 38.0909L21.5717 37.0477L20.6638 36.1905C20.6626 36.1919 20.1356 36.9851 19.9739 37.2083L19.9741 37.2086Z" fill="#D8C99B"/>
<path d="M21.3328 35.3105L22.2487 36.146C22.2487 36.146 22.9682 35.2512 23.0265 35.1782L22.1004 34.352C22.0986 34.352 21.393 35.2567 21.3325 35.3103L21.3328 35.3105Z" fill="#D8C99B"/>
<path d="M22.8294 33.5464L23.7828 34.3334C23.8721 34.2166 24.5828 33.5234 24.6576 33.4823L23.6933 32.7076C23.5566 32.8199 22.9628 33.3869 22.8292 33.5461L22.8294 33.5464Z" fill="#D8C99B"/>
<path d="M24.5652 32.0188L25.5367 32.7692C25.5367 32.7692 26.2523 32.2614 26.5662 32.0645L25.5828 31.3317C25.31 31.4679 24.6363 31.9441 24.5651 32.0193L24.5652 32.0188Z" fill="#D8C99B"/>
<path d="M26.605 30.806L27.6194 31.5218C27.6194 31.5218 28.6949 31.0939 28.8776 31.0483L27.8606 30.3394C27.5709 30.39 26.605 30.806 26.605 30.806V30.806Z" fill="#D8C99B"/>
<path d="M29.11 30.0299L30.1526 30.7142L30.6812 30.6366L29.6162 29.9382C29.6144 29.9382 29.2735 29.9873 29.1099 30.0297L29.11 30.0299Z" fill="#D8C99B"/>
<path d="M10.6047 47.3919C14.2702 46.8061 17.5915 44.1947 20.3562 39.8903C23.6306 34.7905 26.7979 31.4012 31.3022 31.123L31.1103 32.2611C27.7086 32.6473 24.9102 34.3628 22.0512 38.9804C19.1907 43.6004 16.2905 47.8861 10.3342 48.811L10.6046 47.392L10.6047 47.3919Z" fill="#D8C99B"/>
<path d="M10.6047 47.3919L3.13083 36.4631L3.15299 37.3426L10.3319 48.8123L10.6047 47.3919Z" fill="#D8C99B"/>
<path d="M10.2688 46.9075L10.0259 48.3212L9.37909 47.258L9.52707 45.7944L10.2688 46.9075Z" fill="#D8C99B"/>
<path d="M4.66785 38.7295L9.24172 45.3666L9.10374 46.8428L4.67941 39.7645L4.66785 38.7295Z" fill="#D8C99B"/>
<path d="M3.6096 37.1528L3.68334 38.1484L4.39482 39.324L4.37178 38.3017L3.6096 37.1528Z" fill="#D8C99B"/>
<path d="M43.8763 42.6812L39.7963 30.8012H39.7163C39.7296 31.0678 39.7496 31.4412 39.7763 31.9212C39.8029 32.3878 39.8229 32.8945 39.8363 33.4412C39.8629 33.9745 39.8763 34.4945 39.8763 35.0012V42.6812H37.7163V28.4012H41.0763L44.9763 39.7212H45.0563L49.0963 28.4012H52.4563V42.6812H50.1763V34.8812C50.1763 34.4145 50.1829 33.9212 50.1963 33.4012C50.2096 32.8812 50.2296 32.3945 50.2563 31.9412C50.2829 31.4745 50.3029 31.1012 50.3163 30.8212H50.2363L45.9963 42.6812H43.8763ZM61.1728 42.6812H58.7928V30.4412H54.6128V28.4012H65.3528V30.4412H61.1728V42.6812Z" fill="#C05A1E"/>
<defs>
<linearGradient id="paint0_linear_28_357" x1="3.13083" y1="35.7778" x2="31.3796" y2="35.7778" gradientUnits="userSpaceOnUse">
<stop stop-color="#BD632F"/>
<stop offset="1" stop-color="#8F5102"/>
</linearGradient>
<linearGradient id="paint1_linear_28_357" x1="9.2693" y1="42.0291" x2="20.647" y2="29.4194" gradientUnits="userSpaceOnUse">
<stop stop-color="#BD632F"/>
<stop offset="1" stop-color="#B36914"/>
</linearGradient>
<linearGradient id="paint2_linear_28_357" x1="18.6778" y1="32.9428" x2="11.8989" y2="41.7464" gradientUnits="userSpaceOnUse">
<stop stop-color="#BD632F"/>
<stop offset="1" stop-color="#B36914"/>
</linearGradient>
<linearGradient id="paint3_linear_28_357" x1="20.3931" y1="27.8818" x2="29.1968" y2="27.8818" gradientUnits="userSpaceOnUse">
<stop stop-color="#BD632F"/>
<stop offset="1" stop-color="#B36914"/>
<stop offset="1" stop-color="#B36914"/>
</linearGradient>
</defs>
</svg>
