<svg width="180" height="69" viewBox="0 0 180 69" fill="none" xmlns="http://www.w3.org/2000/svg">
<path d="M11.6469 50.1258L11.4452 49.86L2.71458 38.2631L2.60469 38.1171L2.60118 37.9345L2.57327 36.8299L2.56091 36.303L3.09003 36.2463C7.95302 35.7284 10.5953 33.2623 13.5411 30.0939C16.1046 27.3368 19.0099 24.2133 24.4231 23.7854L24.5966 23.7711L24.7488 23.8541L37.8089 30.9605L38.1831 31.1639L38.0988 31.5766L37.8173 32.9623L37.7327 33.3803L37.3033 33.4192C31.5628 33.9384 28.6596 37.5487 25.8531 41.0418C22.7796 44.8659 19.2978 49.2019 11.9801 50.086L11.6468 50.1252L11.6469 50.1258Z" fill="#BD632F"/>
<path d="M3.05267 36.9993C6.93027 36.4307 9.48882 35.6419 13.8858 30.5637C18.2812 25.4859 22.0674 24.4733 24.4773 24.3921L37.5564 31.4993C33.0449 31.7298 28.3957 35.0263 25.5373 39.026C22.6786 43.0242 18.2335 47.5523 12.1181 48.2068L3.05267 36.9995V36.9993Z" fill="url(#paint0_linear_10_40)"/>
<path d="M4.88588 39.2998C6.53476 39.1938 10.6077 38.4622 14.1046 34.5292L20.512 40.351C18.1004 43.3344 13.9388 45.7463 10.3019 46.0558L4.88535 39.3L4.88588 39.2998Z" fill="url(#paint1_linear_10_40)"/>
<path d="M14.9064 33.7203C16.6786 31.6822 18.9174 28.6891 22.9171 26.8412L30.2793 31.3304C27.9399 32.528 25.6205 34.0196 21.4206 39.3976L14.9062 33.7207L14.9064 33.7203Z" fill="url(#paint2_linear_10_40)"/>
<path d="M24.151 26.3414C24.151 26.3414 26.6823 25.7619 27.0028 25.7923L34.8815 30.1133C34.8815 30.1133 33.4782 30.103 31.6376 30.7927L24.1516 26.3417L24.151 26.3414Z" fill="url(#paint3_linear_10_40)"/>
<path d="M3.58261 37.7151L4.80061 37.5693L5.64049 38.6346L4.52652 38.8664L3.58261 37.7151Z" fill="#D8C99B"/>
<path d="M6.05292 37.2598L6.9876 38.3442C6.9876 38.3442 7.95034 38.0883 8.25898 37.9268L7.30966 36.8645C6.90615 37.0314 6.05261 37.2602 6.05261 37.2602L6.05292 37.2598Z" fill="#D8C99B"/>
<path d="M8.35616 36.3998L9.32378 37.4624C9.32378 37.4624 10.2403 36.975 10.4085 36.8565L9.41537 35.8212C9.24149 35.976 8.35608 36.3995 8.35608 36.3995L8.35616 36.3998Z" fill="#D8C99B"/>
<path d="M10.2864 35.2311L11.2956 36.2411C11.2956 36.2411 12.1508 35.6194 12.2165 35.5179L11.1767 34.5119C10.8892 34.7815 10.2868 35.2307 10.2868 35.2307L10.2864 35.2311Z" fill="#D8C99B"/>
<path d="M11.9619 33.8502L12.9961 34.8139C12.9961 34.8139 13.7718 34.0525 13.8134 33.9831L12.7527 33.0342C12.6032 33.2585 11.9619 33.8504 11.9619 33.8504V33.8502Z" fill="#D8C99B"/>
<path d="M13.4475 32.2949L14.5302 33.2434C14.5302 33.2434 15.24 32.4341 15.2856 32.3647L14.2169 31.4631C14.0987 31.6269 13.4466 32.2951 13.4466 32.2951L13.4475 32.2949Z" fill="#D8C99B"/>
<path d="M14.9125 30.7078L15.9802 31.5935L16.755 30.7471L15.6606 29.8766L14.9125 30.7078Z" fill="#D8C99B"/>
<path d="M16.3783 29.1525L17.4818 30.0004L18.3276 29.2107L17.1752 28.3763L16.3783 29.1525Z" fill="#D8C99B"/>
<path d="M17.9798 27.7119L19.1346 28.5156L20.0538 27.8071L18.9239 27.021C18.9239 27.021 18.0484 27.6278 17.9798 27.7119V27.7119Z" fill="#D8C99B"/>
<path d="M19.8475 26.4561L20.9823 27.2122C20.9823 27.2122 22.0046 26.6707 22.1171 26.66L20.9449 25.9151C20.816 25.9677 19.9916 26.3526 19.8475 26.4561Z" fill="#D8C99B"/>
<path d="M21.9836 25.5109L23.1823 26.2106C23.1823 26.2106 24.3861 25.8775 24.5559 25.8443L23.3236 25.1339C23.0224 25.1781 22.0966 25.4666 21.9837 25.5109H21.9836Z" fill="#D8C99B"/>
<path d="M24.5148 24.9118L25.7731 25.6224L26.4618 25.5187L25.1531 24.8177L24.5148 24.9118Z" fill="#D8C99B"/>
<path d="M10.6967 46.5079C10.6967 46.5079 11.9312 46.3125 12.0599 46.2709L12.9709 47.3909C12.9709 47.3909 11.6301 47.6268 11.5696 47.6223L10.6956 46.5087L10.6967 46.5079Z" fill="#D8C99B"/>
<path d="M13.5039 45.9106L14.4398 47.0074C14.4398 47.0074 15.6344 46.6133 15.9316 46.4524L14.9515 45.375C14.6594 45.5207 13.6192 45.8755 13.5041 45.9103L13.5039 45.9106Z" fill="#D8C99B"/>
<path d="M16.1525 44.8099C16.3314 44.7271 17.3165 44.1405 17.3684 44.0699L18.3966 45.1118C18.3966 45.1118 17.3711 45.7751 17.1462 45.8647L16.1532 44.81L16.1525 44.8099Z" fill="#D8C99B"/>
<path d="M18.3794 43.3436L19.4031 44.3726C19.4031 44.3726 20.3571 43.5628 20.4518 43.4596L19.4145 42.4527C19.1789 42.6898 18.446 43.3006 18.3796 43.3436H18.3794Z" fill="#D8C99B"/>
<path d="M20.2822 41.5958L21.3387 42.5843L22.2514 41.5836L21.184 40.6306C21.1847 40.6336 20.4641 41.4354 20.2825 41.5962L20.2822 41.5958Z" fill="#D8C99B"/>
<path d="M21.9912 39.7075L23.0733 40.6499C23.0733 40.6499 23.8643 39.7108 23.9311 39.5943L22.8338 38.6846C22.6858 38.8997 22.1192 39.5543 21.9911 39.7076L21.9912 39.7075Z" fill="#D8C99B"/>
<path d="M23.6255 37.7558L24.7152 38.6511L25.5769 37.5925L24.468 36.7227C24.4664 36.7242 23.8228 37.529 23.6252 37.7555L23.6255 37.7558Z" fill="#D8C99B"/>
<path d="M25.285 35.8298L26.4038 36.6775C26.4038 36.6775 27.2826 35.7696 27.3538 35.6955L26.2227 34.8571C26.2204 34.8571 25.3586 35.7752 25.2846 35.8296L25.285 35.8298Z" fill="#D8C99B"/>
<path d="M27.1131 34.0397L28.2775 34.8383C28.3866 34.7198 29.2547 34.0164 29.3461 33.9747L28.1682 33.1886C28.0012 33.3026 27.276 33.8779 27.1128 34.0395L27.1131 34.0397Z" fill="#D8C99B"/>
<path d="M29.2332 32.4897L30.4198 33.2511C30.4198 33.2511 31.2939 32.7359 31.6773 32.536L30.4762 31.7925C30.1429 31.9307 29.32 32.4139 29.2331 32.4901L29.2332 32.4897Z" fill="#D8C99B"/>
<path d="M31.7247 31.259L32.9637 31.9854C32.9637 31.9854 34.2774 31.5512 34.5004 31.5049L33.2584 30.7856C32.9045 30.837 31.7247 31.259 31.7247 31.259V31.259Z" fill="#D8C99B"/>
<path d="M34.7844 30.4715L36.0578 31.1659L36.7034 31.0871L35.4027 30.3784C35.4004 30.3784 34.984 30.4283 34.7842 30.4713L34.7844 30.4715Z" fill="#D8C99B"/>
<path d="M12.1815 48.0889C16.6586 47.4944 20.7153 44.8446 24.0923 40.4769C28.0917 35.3022 31.9603 31.863 37.4619 31.5807L37.2276 32.7356C33.0726 33.1274 29.6546 34.8681 26.1626 39.5537C22.6687 44.2416 19.1262 48.5903 11.851 49.5288L12.1813 48.089L12.1815 48.0889Z" fill="#D8C99B"/>
<path d="M12.1815 48.0888L3.05267 36.9993L3.07975 37.8917L11.8483 49.5302L12.1815 48.0888Z" fill="#D8C99B"/>
<path d="M11.7712 47.5973L11.4745 49.0318L10.6844 47.9529L10.8652 46.4678L11.7712 47.5973Z" fill="#D8C99B"/>
<path d="M4.93002 39.2991L10.5167 46.0337L10.3481 47.5317L4.94413 40.3493L4.93002 39.2991Z" fill="#D8C99B"/>
<path d="M3.63745 37.6992L3.72752 38.7094L4.59654 39.9023L4.56839 38.8649L3.63745 37.6992Z" fill="#D8C99B"/>
<path d="M52.8316 47L47.9356 32.744H47.8396C47.8556 33.064 47.8796 33.512 47.9116 34.088C47.9436 34.648 47.9676 35.256 47.9836 35.912C48.0156 36.552 48.0316 37.176 48.0316 37.784V47H45.4396V29.864H49.4716L54.1516 43.448H54.2476L59.0956 29.864H63.1276V47H60.3916V37.64C60.3916 37.08 60.3996 36.488 60.4156 35.864C60.4316 35.24 60.4556 34.656 60.4876 34.112C60.5196 33.552 60.5436 33.104 60.5596 32.768H60.4636L55.3756 47H52.8316ZM82.8515 38.408C82.8515 39.736 82.6835 40.944 82.3475 42.032C82.0115 43.104 81.5075 44.032 80.8355 44.816C80.1795 45.6 79.3475 46.2 78.3395 46.616C77.3315 47.032 76.1555 47.24 74.8115 47.24C73.4515 47.24 72.2675 47.032 71.2595 46.616C70.2515 46.184 69.4115 45.584 68.7395 44.816C68.0835 44.032 67.5955 43.096 67.2755 42.008C66.9555 40.92 66.7955 39.712 66.7955 38.384C66.7955 36.624 67.0835 35.088 67.6595 33.776C68.2355 32.464 69.1155 31.44 70.2995 30.704C71.4995 29.968 73.0115 29.6 74.8355 29.6C76.6275 29.6 78.1155 29.968 79.2995 30.704C80.4835 31.424 81.3715 32.448 81.9635 33.776C82.5555 35.088 82.8515 36.632 82.8515 38.408ZM69.8195 38.408C69.8195 39.736 69.9955 40.88 70.3475 41.84C70.6995 42.784 71.2435 43.512 71.9795 44.024C72.7315 44.536 73.6755 44.792 74.8115 44.792C75.9955 44.792 76.9475 44.536 77.6675 44.024C78.4035 43.512 78.9475 42.784 79.2995 41.84C79.6515 40.88 79.8275 39.736 79.8275 38.408C79.8275 36.424 79.4275 34.872 78.6275 33.752C77.8435 32.616 76.5795 32.048 74.8355 32.048C73.6835 32.048 72.7315 32.304 71.9795 32.816C71.2435 33.312 70.6995 34.04 70.3475 35C69.9955 35.944 69.8195 37.08 69.8195 38.408ZM101.766 38.408C101.766 39.736 101.598 40.944 101.262 42.032C100.926 43.104 100.422 44.032 99.7495 44.816C99.0935 45.6 98.2615 46.2 97.2535 46.616C96.2455 47.032 95.0695 47.24 93.7255 47.24C92.3655 47.24 91.1815 47.032 90.1735 46.616C89.1655 46.184 88.3255 45.584 87.6535 44.816C86.9975 44.032 86.5095 43.096 86.1895 42.008C85.8695 40.92 85.7095 39.712 85.7095 38.384C85.7095 36.624 85.9975 35.088 86.5735 33.776C87.1495 32.464 88.0295 31.44 89.2135 30.704C90.4135 29.968 91.9255 29.6 93.7495 29.6C95.5415 29.6 97.0295 29.968 98.2135 30.704C99.3975 31.424 100.286 32.448 100.878 33.776C101.47 35.088 101.766 36.632 101.766 38.408ZM88.7335 38.408C88.7335 39.736 88.9095 40.88 89.2615 41.84C89.6135 42.784 90.1575 43.512 90.8935 44.024C91.6455 44.536 92.5895 44.792 93.7255 44.792C94.9095 44.792 95.8615 44.536 96.5815 44.024C97.3175 43.512 97.8615 42.784 98.2135 41.84C98.5655 40.88 98.7415 39.736 98.7415 38.408C98.7415 36.424 98.3415 34.872 97.5415 33.752C96.7575 32.616 95.4935 32.048 93.7495 32.048C92.5975 32.048 91.6455 32.304 90.8935 32.816C90.1575 33.312 89.6135 34.04 89.2615 35C88.9095 35.944 88.7335 37.08 88.7335 38.408ZM117.925 29.864L111.949 47H108.925L102.949 29.864H105.901L109.453 40.472C109.565 40.792 109.685 41.184 109.813 41.648C109.941 42.096 110.061 42.544 110.173 42.992C110.285 43.44 110.373 43.848 110.437 44.216C110.501 43.848 110.589 43.44 110.701 42.992C110.813 42.528 110.933 42.072 111.061 41.624C111.205 41.176 111.325 40.784 111.421 40.448L114.973 29.864H117.925ZM126.158 47H123.302V32.312H118.286V29.864H131.174V32.312H126.158V47ZM139.391 47H132.407V45.368L134.471 44.648V32.216L132.407 31.496V29.864H139.391V31.496L137.327 32.216V44.648L139.391 45.368V47ZM149.91 47L145.014 32.744H144.918C144.934 33.064 144.958 33.512 144.99 34.088C145.022 34.648 145.046 35.256 145.062 35.912C145.094 36.552 145.11 37.176 145.11 37.784V47H142.518V29.864H146.55L151.23 43.448H151.326L156.174 29.864H160.206V47H157.47V37.64C157.47 37.08 157.478 36.488 157.494 35.864C157.51 35.24 157.534 34.656 157.566 34.112C157.598 33.552 157.622 33.104 157.638 32.768H157.542L152.454 47H149.91ZM174.386 47H164.69V29.864H174.386V32.288H167.546V36.872H173.954V39.272H167.546V44.576H174.386V47Z" fill="#C05A1E"/>
<defs>
<linearGradient id="paint0_linear_10_40" x1="3.05267" y1="36.304" x2="37.5565" y2="36.304" gradientUnits="userSpaceOnUse">
<stop stop-color="#BD632F"/>
<stop offset="1" stop-color="#8F5102"/>
</linearGradient>
<linearGradient id="paint1_linear_10_40" x1="10.5504" y1="42.6472" x2="21.6904" y2="27.7855" gradientUnits="userSpaceOnUse">
<stop stop-color="#BD632F"/>
<stop offset="1" stop-color="#B36914"/>
</linearGradient>
<linearGradient id="paint2_linear_10_40" x1="22.0422" y1="33.4273" x2="15.5828" y2="43.5249" gradientUnits="userSpaceOnUse">
<stop stop-color="#BD632F"/>
<stop offset="1" stop-color="#B36914"/>
</linearGradient>
<linearGradient id="paint3_linear_10_40" x1="24.1373" y1="28.2918" x2="34.8904" y2="28.2918" gradientUnits="userSpaceOnUse">
<stop stop-color="#BD632F"/>
<stop offset="1" stop-color="#B36914"/>
<stop offset="1" stop-color="#B36914"/>
</linearGradient>
</defs>
</svg>
